<svg width="200" height="60" xmlns="http://www.w3.org/2000/svg"><g fill-rule="nonzero" fill="none"><rect fill="#000" width="200" height="60" rx="8"/><path d="M44.304 29.676c-.044-4.834 3.968-7.186 4.151-7.296-2.272-3.304-5.793-3.756-7.031-3.792-2.958-.31-5.827 1.766-7.334 1.766-1.536 0-3.857-1.736-6.357-1.685-3.218.05-6.229 1.908-7.88 4.794-3.407 5.885-.866 14.532 2.399 19.288 1.633 2.33 3.541 4.931 6.039 4.84 2.443-.101 3.356-1.555 6.305-1.555 2.921 0 3.778 1.554 6.326 1.496 2.622-.042 4.273-2.34 5.85-4.69 1.886-2.67 2.644-5.3 2.674-5.435-.061-.021-5.093-1.936-5.142-7.731zm-4.812-14.217c1.314-1.64 2.213-3.87 1.964-6.133-1.903.083-4.281 1.312-5.651 2.915-1.212 1.414-2.295 3.73-2.015 5.908 2.136.158 4.33-1.076 5.702-2.69zm143.194 23.919c0 .573-.037 1.056-.117 1.45h-9.618c.038 1.422.503 2.51 1.396 3.26.81.67 1.858 1.006 3.146 1.006 1.424 0 2.723-.226 3.891-.68l.502 2.22c-1.365.593-2.977.889-4.837.889-2.237 0-3.994-.657-5.272-1.97-1.275-1.312-1.914-3.074-1.914-5.285 0-2.171.594-3.979 1.783-5.42 1.245-1.539 2.928-2.308 5.045-2.308 2.08 0 3.654.769 4.723 2.308.847 1.222 1.272 2.734 1.272 4.53zm-3.057-.83c.021-.947-.188-1.766-.622-2.458-.555-.89-1.408-1.333-2.555-1.333-1.048 0-1.9.433-2.552 1.303-.534.691-.85 1.521-.949 2.487h6.678v.002-.001zm-11.28-2.873a5.58 5.58 0 00-1.01-.089c-1.129 0-2 .425-2.614 1.275-.534.75-.802 1.698-.802 2.842v7.553h-3.204l.03-9.861c0-1.659-.04-3.17-.12-4.532h2.792l.117 2.754h.089c.338-.946.872-1.708 1.603-2.28.714-.514 1.486-.77 2.317-.77.296 0 .564.02.802.058v3.05zm-10.421 4.265c0 2.213-.635 4.03-1.9 5.45-1.329 1.462-3.09 2.191-5.288 2.191-2.117 0-3.803-.7-5.06-2.101-1.257-1.401-1.885-3.17-1.885-5.301 0-2.23.646-4.058 1.944-5.478 1.295-1.422 3.042-2.133 5.239-2.133 2.117 0 3.82.7 5.106 2.103 1.23 1.36 1.844 3.117 1.844 5.27v-.001zm-3.326.104c0-1.328-.284-2.466-.86-3.415-.673-1.15-1.633-1.723-2.878-1.723-1.29 0-2.268.575-2.94 1.722-.576.951-.86 2.108-.86 3.476 0 1.327.284 2.466.86 3.414.693 1.149 1.661 1.722 2.911 1.722 1.224 0 2.185-.585 2.878-1.752.591-.967.889-2.118.889-3.444zm-12.618-4.782h-3.534v6.989c0 1.777.623 2.665 1.871 2.665.573 0 1.048-.05 1.424-.148l.089 2.428c-.632.235-1.463.354-2.493.354-1.266 0-2.256-.386-2.97-1.155-.711-.771-1.07-2.064-1.07-3.88v-7.256h-2.104v-2.4h2.105v-2.635l3.148-.948v3.583h3.534v2.403zm-10.599 6.396c0 1.698-.591 3.08-1.778 4.146-1.304 1.166-3.118 1.748-5.45 1.748-2.154 0-3.88-.414-5.187-1.244l.743-2.665c1.407.849 2.952 1.275 4.634 1.275 1.208 0 2.148-.273 2.823-.816.672-.543 1.007-1.272 1.007-2.181 0-.81-.277-1.493-.831-2.046-.552-.554-1.474-1.068-2.761-1.544-3.504-1.303-5.254-3.213-5.254-5.724 0-1.641.613-2.986 1.842-4.033 1.224-1.049 2.857-1.572 4.899-1.572 1.821 0 3.334.316 4.541.948l-.801 2.607c-1.128-.612-2.403-.918-3.83-.918-1.128 0-2.01.277-2.64.829-.535.494-.802 1.095-.802 1.808 0 .789.305 1.441.919 1.954.533.474 1.503.987 2.91 1.54 1.722.692 2.987 1.5 3.8 2.428.811.924 1.216 2.08 1.216 3.46zm-18.556-1.776c0 2.448-.663 4.383-1.991 5.804-1.186 1.264-2.662 1.895-4.422 1.895-1.901 0-3.266-.68-4.097-2.043h-.06v7.583h-3.206v-15.52c0-1.54-.04-3.119-.118-4.739h2.82l.178 2.281h.06c1.068-1.719 2.69-2.577 4.87-2.577 1.7 0 3.12.671 4.26 2.013 1.136 1.344 1.706 3.111 1.706 5.303zm-3.266.117c0-1.401-.317-2.556-.952-3.465-.693-.948-1.621-1.422-2.79-1.422-.792 0-1.51.264-2.153.784-.643.525-1.063 1.211-1.26 2.06-.098.396-.149.72-.149.975v2.4c0 1.047.322 1.93.963 2.652.643.72 1.48 1.081 2.51 1.081 1.208 0 2.148-.465 2.82-1.392.674-.928 1.01-2.152 1.01-3.673h.001zm-13.331-.117c0 2.448-.663 4.383-1.989 5.804-1.188 1.264-2.663 1.895-4.424 1.895-1.9 0-3.266-.68-4.097-2.043h-.06v7.583h-3.206v-15.52c0-1.54-.041-3.119-.12-4.739h2.82l.18 2.281h.06c1.068-1.719 2.69-2.577 4.868-2.577 1.702 0 3.123.671 4.26 2.013 1.14 1.344 1.708 3.111 1.708 5.303zm-3.266.117c0-1.401-.315-2.556-.95-3.465-.693-.948-1.624-1.422-2.79-1.422-.792 0-1.51.264-2.153.784-.643.525-1.064 1.211-1.261 2.06-.1.396-.149.72-.149.975v2.4c0 1.047.322 1.93.965 2.652.644.721 1.48 1.081 2.509 1.081 1.207 0 2.147-.465 2.819-1.392.674-.928 1.01-2.152 1.01-3.673zm-13.3 7.257h-3.415l-1.87-5.864h-6.502l-1.782 5.864h-3.325l6.442-19.962h3.979l6.473 19.962zm-5.85-8.324l-1.69-5.212c-.18-.532-.515-1.786-1.01-3.76h-.06c-.197.848-.514 2.102-.95 3.76l-1.662 5.212h5.373-.001zM181.26 16.28c0 .281-.022.518-.06.712h-4.725c.02.699.246 1.231.684 1.6.4.33.916.495 1.547.495.7 0 1.337-.11 1.911-.334l.247 1.092c-.672.291-1.463.436-2.379.436-1.098 0-1.962-.322-2.588-.967-.628-.645-.94-1.51-.94-2.596 0-1.067.29-1.955.876-2.663.61-.756 1.436-1.134 2.478-1.134 1.02 0 1.794.378 2.317 1.134.422.6.631 1.343.631 2.224l.001.001zm-1.504-.407c.012-.466-.092-.869-.306-1.208-.273-.436-.69-.655-1.254-.655-.514 0-.933.213-1.254.64-.267.356-.429.78-.467 1.223H179.756zm-7.102 4.277h-1.578v-4.02c0-1.268-.475-1.902-1.427-1.902-.73 0-1.23.367-1.503 1.102a1.97 1.97 0 00-.074.565v4.253h-1.574V9.834h1.574v4.261h.03c.496-.775 1.207-1.162 2.13-1.162.652 0 1.192.213 1.62.64.534.533.802 1.325.802 2.372v4.205zm-8.343-5.894h-1.735v3.435c0 .873.308 1.31.919 1.31.282 0 .517-.024.702-.074l.04 1.193c-.31.117-.72.175-1.224.175-.622 0-1.106-.189-1.457-.567-.351-.378-.526-1.014-.526-1.906v-3.566h-1.036v-1.178h1.036v-1.295l1.544-.465v1.759h1.736v1.179h.001zm-10.605 5.894h-1.575V16.1c0-1.249-.475-1.873-1.43-1.873-.468 0-.845.171-1.137.515a1.815 1.815 0 00-.437 1.212v4.194h-1.578v-5.049c0-.621-.018-1.295-.055-2.024h1.383l.074 1.106h.043c.185-.343.46-.627.817-.853.43-.265.925-.403 1.43-.398.66 0 1.21.213 1.648.64.546.524.817 1.306.817 2.344v4.236zm-8.474-3.594c0 1.087-.311 1.978-.934 2.677-.652.719-1.515 1.077-2.597 1.077-1.039 0-1.867-.343-2.487-1.033-.616-.689-.924-1.557-.924-2.604 0-1.095.317-1.994.954-2.691.638-.698 1.495-1.047 2.576-1.047 1.04 0 1.877.343 2.508 1.032.602.669.904 1.533.904 2.589zm-1.633.05c0-.652-.141-1.212-.422-1.678-.333-.564-.802-.846-1.415-.846-.632 0-1.113.282-1.445.846-.283.466-.423 1.035-.423 1.707 0 .652.141 1.212.423 1.678.34.565.816.847 1.43.847.601 0 1.075-.287 1.415-.861.29-.476.437-1.04.437-1.692v-.001zm-11.845 3.544h-1.398l-.074-1.136h-.043c-.447.864-1.208 1.296-2.277 1.296-.854 0-1.565-.334-2.13-1.003-.563-.67-.844-1.538-.844-2.604 0-1.145.305-2.072.919-2.78.594-.66 1.321-.99 2.187-.99.952 0 1.618.32 1.997.96h.03V9.834h1.578v8.41c0 .689.018 1.324.055 1.906zm-1.633-2.982v-1.18c0-.203-.015-.368-.043-.494a1.79 1.79 0 00-.57-.953 1.551 1.551 0 00-1.054-.386c-.588 0-1.048.233-1.387.7-.335.466-.505 1.061-.505 1.789 0 .699.161 1.266.484 1.703.342.464.802.697 1.378.697.517 0 .93-.194 1.245-.582.304-.359.452-.79.452-1.295v.001zM122.8 20.15h-1.415l-.117-.815h-.044c-.484.65-1.174.975-2.07.975-.67 0-1.211-.214-1.619-.64-.37-.388-.554-.869-.554-1.44 0-.864.36-1.523 1.087-1.979.725-.456 1.744-.68 3.057-.669v-.132c0-.931-.49-1.396-1.472-1.396-.7 0-1.316.175-1.848.523l-.32-1.032c.658-.407 1.471-.61 2.43-.61 1.853 0 2.783.974 2.783 2.924v2.605c0 .706.034 1.269.102 1.686zm-1.636-2.43v-1.091c-1.738-.03-2.608.445-2.608 1.425 0 .369.1.645.303.83.203.184.461.275.77.275.345 0 .669-.109.963-.327.363-.254.577-.67.572-1.113v.001zm-5.991-1.164c0 1.087-.311 1.978-.934 2.677-.652.719-1.518 1.077-2.597 1.077-1.042 0-1.87-.343-2.487-1.033-.616-.689-.924-1.557-.924-2.604 0-1.095.317-1.994.954-2.691.638-.698 1.495-1.047 2.573-1.047 1.042 0 1.877.343 2.511 1.032.602.669.904 1.533.904 2.589zm-1.636.05c0-.652-.141-1.212-.422-1.678-.33-.564-.802-.846-1.412-.846-.635 0-1.116.282-1.445.846-.283.466-.423 1.035-.423 1.707 0 .652.141 1.212.423 1.678.34.565.816.847 1.43.847.601 0 1.072-.287 1.412-.861.293-.476.437-1.04.437-1.692v-.001zm-7.642 3.544h-1.574V9.833h1.574V20.15zm-4.345 0h-1.576V16.1c0-1.249-.475-1.873-1.429-1.873-.467 0-.845.171-1.138.515-.29.343-.438.748-.438 1.212v4.194h-1.576v-5.049a40.2 40.2 0 00-.057-2.024h1.385l.074 1.106h.043a2.28 2.28 0 01.817-.853c.43-.265.925-.403 1.429-.398.661 0 1.211.213 1.65.64.543.524.816 1.306.816 2.344v4.236zm-8.17-7.071l-2.218 7.07h-1.444l-.918-3.07a22.934 22.934 0 01-.57-2.285h-.03a16.691 16.691 0 01-.57 2.285l-.976 3.07h-1.46l-2.085-7.07h1.62l.8 3.361c.195.795.354 1.552.482 2.27h.028c.16-.76.356-1.513.585-2.255l1.006-3.375h1.284l.964 3.303c.233.806.423 1.581.569 2.328h.043c.107-.727.268-1.503.482-2.328l.86-3.303h1.547v-.001h.001zm-11.813 3.477c0 1.087-.311 1.978-.934 2.677-.653.719-1.517 1.077-2.597 1.077-1.04 0-1.869-.343-2.487-1.033-.616-.689-.925-1.557-.925-2.604 0-1.095.318-1.994.955-2.691.638-.698 1.495-1.047 2.574-1.047 1.041 0 1.877.343 2.51 1.032.602.669.904 1.533.904 2.589zm-1.635.05c0-.652-.141-1.212-.422-1.678-.331-.564-.802-.846-1.414-.846-.633 0-1.114.282-1.445.846-.282.466-.422 1.035-.422 1.707 0 .652.141 1.212.422 1.678.342.565.817.847 1.43.847.602 0 1.074-.287 1.414-.861.291-.476.437-1.04.437-1.692v-.001zm-7.175-1.592c0 1.765-.531 3.094-1.591 3.987-.982.823-2.378 1.236-4.185 1.236a19.45 19.45 0 01-2.305-.117v-9.647c.837-.135 1.74-.204 2.714-.204 1.722 0 3.02.374 3.895 1.12.98.845 1.472 2.053 1.472 3.625zm-1.662.043c0-1.144-.304-2.022-.911-2.634-.608-.61-1.495-.916-2.663-.916-.496 0-.919.033-1.27.102v7.333c.195.03.55.044 1.065.044 1.206 0 2.137-.335 2.793-1.004.655-.669.986-1.644.986-2.925z" fill="#FFF"/></g></svg>