<svg width="200" height="60" xmlns="http://www.w3.org/2000/svg"><defs><linearGradient x1="91.683%" y1="37.89%" x2="-38.413%" y2="55.826%" id="a"><stop stop-color="#00A1FF" offset="0%"/><stop stop-color="#00BEFF" offset="26.01%"/><stop stop-color="#00D2FF" offset="51.22%"/><stop stop-color="#00DFFF" offset="76.04%"/><stop stop-color="#00E3FF" offset="100%"/></linearGradient><linearGradient x1="107.998%" y1="49.535%" x2="-130.395%" y2="49.535%" id="b"><stop stop-color="#FFE000" offset="0%"/><stop stop-color="#FFBD00" offset="40.87%"/><stop stop-color="orange" offset="77.54%"/><stop stop-color="#FF9C00" offset="100%"/></linearGradient><linearGradient x1="71.552%" y1="17.638%" x2="-9.463%" y2="195.596%" id="c"><stop stop-color="#FF3A44" offset="0%"/><stop stop-color="#C31162" offset="100%"/></linearGradient><linearGradient x1="9.148%" y1="-53.645%" x2="45.327%" y2="24.959%" id="d"><stop stop-color="#32A071" offset="0%"/><stop stop-color="#2DA771" offset="6.85%"/><stop stop-color="#15CF74" offset="47.62%"/><stop stop-color="#06E775" offset="80.09%"/><stop stop-color="#00F076" offset="100%"/></linearGradient></defs><g fill-rule="nonzero" fill="none"><rect fill="#000" width="200" height="60" rx="8"/><path d="M160.1 46.25h2.807V27.498H160.1V46.25zm25.274-11.997l-3.218 8.13h-.096l-3.337-8.13H175.7l5.006 11.363-2.852 6.32h2.926l7.714-17.683h-3.12zM169.46 44.12c-.919 0-2.201-.457-2.201-1.593 0-1.446 1.597-2.001 2.976-2.001 1.233 0 1.813.265 2.562.627a3.397 3.397 0 01-3.337 2.967zm.338-10.276c-2.031 0-4.135.892-5.006 2.87l2.49 1.037c.533-1.036 1.526-1.375 2.565-1.375 1.45 0 2.926.868 2.95 2.413v.192c-.508-.29-1.595-.723-2.926-.723-2.685 0-5.417 1.472-5.417 4.221 0 2.51 2.2 4.127 4.668 4.127 1.886 0 2.926-.845 3.579-1.835h.096v1.447h2.71V39.03c0-3.329-2.492-5.186-5.709-5.186zm-17.34 2.692h-3.99v-6.427h3.99c2.097 0 3.29 1.732 3.29 3.213 0 1.453-1.193 3.214-3.29 3.214zm-.073-9.037h-6.723V46.25h2.806v-7.104h3.917c3.11 0 6.167-2.247 6.167-5.824 0-3.578-3.057-5.823-6.167-5.823zm-36.663 16.624c-1.939 0-3.561-1.618-3.561-3.841 0-2.247 1.622-3.891 3.56-3.891 1.915 0 3.417 1.644 3.417 3.89 0 2.224-1.502 3.842-3.416 3.842zm3.222-8.82h-.097c-.63-.748-1.841-1.425-3.367-1.425-3.199 0-6.13 2.802-6.13 6.403 0 3.577 2.931 6.356 6.13 6.356 1.526 0 2.737-.677 3.367-1.45h.097v.919c0 2.44-1.308 3.745-3.416 3.745-1.72 0-2.787-1.233-3.221-2.272l-2.448 1.015c.702 1.692 2.568 3.77 5.669 3.77 3.295 0 6.081-1.934 6.081-6.645V34.263h-2.665v1.04zm4.603 10.947h2.81V27.497h-2.81V46.25zm6.954-6.186c-.074-2.464 1.913-3.722 3.343-3.722 1.114 0 2.058.556 2.374 1.354l-5.717 2.368zm8.72-2.127c-.532-1.425-2.156-4.059-5.475-4.059-3.295 0-6.032 2.585-6.032 6.38 0 3.575 2.713 6.379 6.348 6.379 2.93 0 4.627-1.788 5.329-2.828l-2.18-1.45c-.727 1.063-1.72 1.764-3.15 1.764s-2.447-.652-3.1-1.932l8.552-3.53-.292-.724zM71.09 35.836v2.705h6.493c-.194 1.523-.704 2.635-1.478 3.407-.946.944-2.423 1.983-5.015 1.983-3.997 0-7.122-3.215-7.122-7.202 0-3.988 3.125-7.201 7.122-7.201 2.156 0 3.73.846 4.893 1.933l1.914-1.909c-1.622-1.547-3.779-2.732-6.807-2.732-5.475 0-10.078 4.448-10.078 9.91 0 5.461 4.603 9.907 10.078 9.907 2.955 0 5.185-.968 6.929-2.78 1.793-1.788 2.349-4.3 2.349-6.331a8.85 8.85 0 00-.144-1.69H71.09zm16.66 8.287c-1.938 0-3.61-1.595-3.61-3.866 0-2.296 1.672-3.867 3.61-3.867s3.609 1.571 3.609 3.867c0 2.271-1.67 3.866-3.61 3.866h.001zm0-10.245c-3.537 0-6.421 2.682-6.421 6.38 0 3.673 2.884 6.379 6.42 6.379 3.538 0 6.42-2.706 6.42-6.38 0-3.697-2.882-6.379-6.42-6.379h.001zm14.004 10.245c-1.938 0-3.609-1.594-3.609-3.865 0-2.297 1.671-3.867 3.61-3.867 1.938 0 3.608 1.57 3.608 3.867 0 2.27-1.67 3.865-3.609 3.865zm0-10.245c-3.536 0-6.42 2.682-6.42 6.38 0 3.673 2.884 6.379 6.42 6.379 3.537 0 6.42-2.706 6.42-6.38 0-3.697-2.883-6.379-6.42-6.379zm17.299-22.67v5.586l.036 1.304-4.245-6.89h-1.666v9.583h1.477v-5.936l-.035-1.303 4.45 7.239h1.464v-9.583h-1.481zM110.327 16c0 1.03-.327 1.89-.974 2.553a3.2 3.2 0 01-2.375.997 3.204 3.204 0 01-2.377-.997c-.645-.663-.973-1.523-.973-2.554 0-1.03.328-1.89.973-2.553.645-.662 1.444-.996 2.377-.996.933 0 1.732.334 2.375.996.647.663.974 1.522.974 2.553V16zm-3.35-4.999c-1.374 0-2.538.488-3.462 1.452-.922.962-1.39 2.154-1.39 3.546 0 1.393.468 2.586 1.39 3.546.923.965 2.088 1.451 3.463 1.451 1.373 0 2.54-.486 3.462-1.451.924-.961 1.39-2.155 1.39-3.546 0-1.383-.467-2.573-1.396-3.54-.928-.968-2.092-1.458-3.456-1.458h-.001zm-14.983 1.656h2.555v8.133h1.479v-8.133h2.555v-1.449h-6.59l.001 1.449zm-2.658 8.133h1.48v-9.583h-1.48v9.583zm-10.834-8.133h2.555v8.133h1.48v-8.133h2.555v-1.449h-6.59v1.449zm-6.566 8.133h5.645v-1.448h-4.165v-2.63h3.757v-1.424h-3.757v-2.631h4.165v-1.45h-5.645v9.583zm-1.471-5.27h-4.713v1.424h3.305c-.085.682-.321 1.224-.705 1.616-.65.656-1.473.989-2.447.989-.918 0-1.723-.331-2.392-.986-.67-.654-1.008-1.517-1.008-2.563 0-1.048.338-1.91 1.008-2.564.669-.654 1.474-.987 2.392-.987 1.026 0 1.806.342 2.387 1.045l.108.13 1.019-1.035-.089-.109c-.37-.446-.87-.81-1.488-1.078A4.838 4.838 0 0065.905 11c-1.356 0-2.525.483-3.473 1.437C61.482 13.391 61 14.59 61 16c0 1.41.482 2.607 1.432 3.561.948.952 2.116 1.436 3.473 1.436 1.416 0 2.584-.478 3.468-1.417.784-.796 1.182-1.874 1.182-3.205 0-.234-.023-.48-.067-.726l-.023-.128v-.001z" fill="#FFF"/><path d="M1.23 1.097c-.436.46-.696 1.177-.696 2.107v33.173c0 .93.259 1.645.696 2.107l.11.108L19.972 20.01v-.439L1.34.987l-.11.11z" fill="url(#a)" transform="translate(13 12)"/><path d="M19.972 19.57v.441l6.209 6.196.142-.08 7.357-4.171c2.102-1.19 2.102-3.14 0-4.33l-7.357-4.17-.14-.08-6.211 6.195v-.001z" fill="url(#b)" transform="translate(13 12)"/><path d="M1.23 38.484c.692.732 1.836.822 3.125.093l21.968-12.45-6.351-6.336L1.23 38.484z" fill="url(#c)" transform="translate(13 12)"/><path d="M1.23 1.097L19.972 19.79l6.351-6.337L4.355 1.004C3.751.662 3.178.5 2.669.5c-.575 0-1.072.208-1.439.597" fill="url(#d)" transform="translate(13 12)"/></g></svg>